<svg width="50" height="50" viewBox="0 0 50 50" fill="none" xmlns="http://www.w3.org/2000/svg">
<path d="M15.5791 19.376H24.8566V21.2027H15.5791V19.376Z" fill="#02134F"/>
<path d="M15.5791 15.7222H29.4954V17.5489H15.5791V15.7222Z" fill="#02134F"/>
<path d="M15.5791 12.0688H29.4954V13.8956H15.5791V12.0688Z" fill="#02134F"/>
<path d="M11.765 35.8168L18.2952 26.6866L26.9163 32.6145C27.1769 32.7971 27.4865 32.9311 27.822 33.0065C28.1574 33.0818 28.5101 33.0966 28.8539 33.0498C29.1976 33.0029 29.5235 32.8955 29.8072 32.7357C30.091 32.5759 30.3253 32.3678 30.4928 32.1267L38.5758 22.6248L36.6496 21.6073L28.5318 31.1503L28.4506 31.2444L19.8283 25.3165C19.5678 25.1349 19.2588 25.0018 18.9242 24.9268C18.5895 24.8519 18.2378 24.8371 17.8949 24.8835C17.552 24.93 17.2268 25.0365 16.9432 25.1953C16.6596 25.354 16.4249 25.5609 16.2565 25.8006L10.9405 33.2438V12.0688H8.62109V35.8168C8.62171 36.3011 8.86627 36.7655 9.3011 37.108C9.73594 37.4505 10.3255 37.6431 10.9405 37.6436H41.0924V35.8168H11.765Z" fill="#02134F"/>
<circle cx="25" cy="25" r="23.5" stroke="#02134F" stroke-width="3"/>
</svg>
