<svg width="50" height="50" viewBox="0 0 50 50" fill="none" xmlns="http://www.w3.org/2000/svg">
<path d="M25 0C11.4475 0 0 11.4475 0 25C0 38.5525 11.4475 50 25 50C38.5525 50 50 38.5525 50 25C50 11.4475 38.5525 0 25 0ZM25 12.5C29.3175 12.5 32.5 15.68 32.5 20C32.5 24.32 29.3175 27.5 25 27.5C20.685 27.5 17.5 24.32 17.5 20C17.5 15.68 20.685 12.5 25 12.5ZM12.235 36.93C14.4775 33.63 18.2175 31.43 22.5 31.43H27.5C31.785 31.43 35.5225 33.63 37.765 36.93C34.57 40.35 30.0375 42.5 25 42.5C19.9625 42.5 15.43 40.35 12.235 36.93Z" fill="#060372"/>
</svg>
