<svg width="50" height="50" viewBox="0 0 50 50" fill="none" xmlns="http://www.w3.org/2000/svg">
<path d="M25.0856 41.3338C25.5196 41.3338 25.939 41.491 26.266 41.7763C26.5931 42.0615 26.8058 42.4556 26.8649 42.8855L26.8816 43.1298V46.7217C26.8815 47.1768 26.7086 47.6148 26.398 47.9473C26.0873 48.2798 25.662 48.482 25.2081 48.513C24.7541 48.544 24.3053 48.4015 23.9523 48.1144C23.5993 47.8272 23.3685 47.4168 23.3064 46.966L23.2897 46.7217V43.1298C23.2897 42.6535 23.4789 42.1966 23.8157 41.8598C24.1525 41.523 24.6093 41.3338 25.0856 41.3338ZM39.5061 36.3697L42.0445 38.9104C42.3617 39.2509 42.5344 39.7012 42.5262 40.1665C42.518 40.6318 42.3295 41.0757 42.0005 41.4047C41.6714 41.7338 41.2275 41.9223 40.7622 41.9305C40.2969 41.9387 39.8466 41.766 39.5061 41.4487L36.9654 38.9104C36.789 38.746 36.6475 38.5477 36.5493 38.3274C36.4511 38.1071 36.3983 37.8693 36.3941 37.6282C36.3898 37.387 36.4342 37.1475 36.5245 36.9238C36.6149 36.7002 36.7493 36.4971 36.9198 36.3265C37.0904 36.156 37.2935 36.0215 37.5172 35.9312C37.7408 35.8409 37.9803 35.7965 38.2215 35.8008C38.4626 35.805 38.7004 35.8578 38.9207 35.956C39.1411 36.0541 39.3393 36.1957 39.5037 36.3721L39.5061 36.3697ZM13.2035 36.3697C13.3704 36.5365 13.5028 36.7345 13.5931 36.9525C13.6834 37.1705 13.7299 37.4041 13.7299 37.6401C13.7299 37.876 13.6834 38.1097 13.5931 38.3276C13.5028 38.5456 13.3704 38.7436 13.2035 38.9104L10.6651 41.4487C10.5007 41.6252 10.3025 41.7667 10.0821 41.8649C9.86184 41.9631 9.62402 42.0158 9.38288 42.0201C9.14173 42.0243 8.9022 41.98 8.67857 41.8897C8.45494 41.7993 8.25179 41.6649 8.08125 41.4943C7.9107 41.3238 7.77626 41.1206 7.68593 40.897C7.5956 40.6734 7.55124 40.4339 7.5555 40.1927C7.55975 39.9516 7.61253 39.7137 7.71069 39.4934C7.80885 39.2731 7.95038 39.0749 8.12684 38.9104L10.6651 36.3721C11.0019 36.0358 11.4584 35.8469 11.9343 35.8469C12.4102 35.8469 12.8667 36.0358 13.2035 36.3721V36.3697ZM25.0952 11.3194C28.6041 11.3194 31.9693 12.7133 34.4505 15.1945C36.9317 17.6757 38.3256 21.0409 38.3256 24.5498C38.3256 28.0587 36.9317 31.4239 34.4505 33.9051C31.9693 36.3863 28.6041 37.7802 25.0952 37.7802C21.5863 37.7802 18.2211 36.3863 15.7399 33.9051C13.2588 31.4239 11.8649 28.0587 11.8649 24.5498C11.8649 21.0409 13.2588 17.6757 15.7399 15.1945C18.2211 12.7133 21.5863 11.3194 25.0952 11.3194ZM25.0952 14.9114C23.8295 14.9114 22.5762 15.1607 21.4068 15.6451C20.2374 16.1294 19.1749 16.8394 18.2798 17.7344C17.3848 18.6294 16.6749 19.692 16.1905 20.8613C15.7061 22.0307 15.4568 23.2841 15.4568 24.5498C15.4568 25.8155 15.7061 27.0689 16.1905 28.2383C16.6749 29.4076 17.3848 30.4702 18.2798 31.3652C19.1749 32.2602 20.2374 32.9702 21.4068 33.4545C22.5762 33.9389 23.8295 34.1882 25.0952 34.1882C27.6515 34.1882 30.1031 33.1727 31.9106 31.3652C33.7182 29.5576 34.7336 27.1061 34.7336 24.5498C34.7336 21.9935 33.7182 19.542 31.9106 17.7344C30.1031 15.9269 27.6515 14.9114 25.0952 14.9114ZM23.2992 17.3635C23.7332 17.3635 24.1526 17.5207 24.4796 17.8059C24.8067 18.0912 25.0194 18.4853 25.0785 18.9152L25.0952 19.1595V24.5546H28.0885C28.5229 24.5547 28.9425 24.7122 29.2696 24.9979C29.5968 25.2837 29.8092 25.6783 29.8677 26.1087L29.8821 26.353C29.8821 26.787 29.7249 27.2063 29.4397 27.5333C29.1544 27.8604 28.7603 28.0732 28.3304 28.1322L28.0861 28.1489H23.2969C22.8629 28.1483 22.4439 27.9905 22.1172 27.7048C21.7906 27.4191 21.5785 27.0248 21.52 26.5948L21.5033 26.353V19.1595C21.5033 18.6832 21.6925 18.2263 22.0293 17.8895C22.3661 17.5527 22.8229 17.3635 23.2992 17.3635ZM47.2456 22.7945C47.7004 22.7953 48.1381 22.9686 48.4701 23.2794C48.8021 23.5902 49.0039 24.0155 49.0346 24.4693C49.0653 24.9231 48.9226 25.3716 48.6355 25.7244C48.3483 26.0771 47.9381 26.3077 47.4875 26.3697L47.2456 26.3865H43.6537C43.1986 26.3863 42.7606 26.2135 42.4281 25.9028C42.0956 25.5922 41.8934 25.1669 41.8624 24.7129C41.8314 24.2589 41.9739 23.8101 42.261 23.4571C42.5482 23.1041 42.9586 22.8733 43.4094 22.8113L43.6537 22.7945H47.2456ZM6.5368 22.7251C6.99183 22.7252 7.42986 22.8981 7.76235 23.2087C8.09485 23.5194 8.29703 23.9447 8.32805 24.3987C8.35906 24.8526 8.2166 25.3015 7.92944 25.6544C7.64228 26.0074 7.23184 26.2383 6.78105 26.3003L6.5368 26.317H2.94484C2.48981 26.3169 2.05179 26.144 1.71929 25.8334C1.38679 25.5227 1.18461 25.0975 1.15359 24.6435C1.12258 24.1895 1.26504 23.7407 1.5522 23.3877C1.83936 23.0347 2.2498 22.8039 2.70059 22.7419L2.94484 22.7251H6.5368ZM10.464 7.47126L10.6651 7.64367L13.2035 10.1796C13.5256 10.4997 13.7146 10.9299 13.7323 11.3837C13.75 11.8374 13.5952 12.2811 13.2989 12.6253C13.0027 12.9695 12.5871 13.1887 12.1357 13.2387C11.6843 13.2888 11.2308 13.166 10.8663 12.8951L10.6651 12.7203L8.12684 10.182C7.80467 9.86193 7.6157 9.4317 7.59799 8.97792C7.58028 8.52414 7.73513 8.0805 8.03137 7.7363C8.32761 7.3921 8.74324 7.1729 9.1946 7.12284C9.64596 7.07277 10.0995 7.19556 10.464 7.46647V7.47126ZM42.0445 7.64367C42.3486 7.94776 42.5336 8.35091 42.5656 8.77981C42.5977 9.20871 42.4748 9.63488 42.2193 9.98084L42.0445 10.182L39.5061 12.7227C39.1861 13.0449 38.7559 13.2338 38.3021 13.2515C37.8483 13.2693 37.4047 13.1144 37.0605 12.8182C36.7163 12.5219 36.4971 12.1063 36.447 11.6549C36.3969 11.2036 36.5197 10.75 36.7906 10.3855L36.9654 10.1796L39.5037 7.64128C39.6705 7.47438 39.8686 7.34199 40.0865 7.25166C40.3045 7.16133 40.5382 7.11484 40.7741 7.11484C41.0101 7.11484 41.2437 7.16133 41.4617 7.25166C41.6796 7.34199 41.8777 7.47438 42.0445 7.64128V7.64367ZM25.0952 0.574707C25.5292 0.574725 25.9485 0.731898 26.2756 1.01716C26.6027 1.30242 26.8154 1.69647 26.8744 2.12643L26.8912 2.37068V5.96264C26.8911 6.41768 26.7182 6.8557 26.4076 7.18819C26.0969 7.52069 25.6716 7.72287 25.2176 7.75389C24.7637 7.7849 24.3148 7.64244 23.9618 7.35528C23.6089 7.06812 23.378 6.65768 23.316 6.20689L23.2992 5.96264V2.37068C23.2992 1.89436 23.4885 1.43755 23.8253 1.10074C24.1621 0.763926 24.6189 0.574707 25.0952 0.574707Z" fill="#02134F"/>
<circle cx="25" cy="25" r="23.5" stroke="#02134F" stroke-width="3"/>
</svg>
