<svg width="209" height="61" viewBox="0 0 209 61" fill="none" xmlns="http://www.w3.org/2000/svg">
<path d="M10.5 21L0 15L26 0V12.5L10.5 21Z" fill="#6C90DD"/>
<path d="M26 12.5V0.5L52 14.5L41.5 21L26 12.5Z" fill="#FEB577"/>
<path d="M10.5 39.5V21.5L0 15V45L10.5 39.5Z" fill="#2F60D7"/>
<path d="M26.5 48L41.5 40L52.5 45.5L26.5 61V48Z" fill="#DE5A2C"/>
<path d="M10.5 39.5L0 45L26.5 61V48L10.5 39.5Z" fill="#1642B0"/>
<path d="M26.5 31.5V17L37.5 23.5L26.5 31.5Z" fill="#FEB577"/>
<path d="M26.5 44V31.5L37.5 37.5L26.5 44Z" fill="#DE5A2C"/>
<path d="M14.5 23.5L26.5 31.5V16.5L14.5 23.5Z" fill="#6C90DD"/>
<path d="M14 36.9583L27 31V44L14 36.9583Z" fill="#1642B0"/>
<path d="M37.5 23.5L26.5 31.5L37.5 37.5V23.5Z" fill="#FA8A52"/>
<path d="M14.5 23.5L26.5 31.5L14.5 37.5V23.5Z" fill="#2F60D7"/>
<path d="M69.85 23.9V29.45H79.57V33.35H69.85V41H64.99V20H80.86V23.9H69.85ZM83.5272 24.86H88.2072V41H83.5272V24.86ZM85.8672 22.61C85.0072 22.61 84.3072 22.36 83.7672 21.86C83.2272 21.36 82.9572 20.74 82.9572 20C82.9572 19.26 83.2272 18.64 83.7672 18.14C84.3072 17.64 85.0072 17.39 85.8672 17.39C86.7272 17.39 87.4272 17.63 87.9672 18.11C88.5072 18.59 88.7772 19.19 88.7772 19.91C88.7772 20.69 88.5072 21.34 87.9672 21.86C87.4272 22.36 86.7272 22.61 85.8672 22.61ZM102.361 24.62C104.361 24.62 105.971 25.22 107.191 26.42C108.431 27.62 109.051 29.4 109.051 31.76V41H104.371V32.48C104.371 31.2 104.091 30.25 103.531 29.63C102.971 28.99 102.161 28.67 101.101 28.67C99.9206 28.67 98.9806 29.04 98.2806 29.78C97.5806 30.5 97.2306 31.58 97.2306 33.02V41H92.5506V24.86H97.0206V26.75C97.6406 26.07 98.4106 25.55 99.3306 25.19C100.251 24.81 101.261 24.62 102.361 24.62ZM119.803 24.62C122.303 24.62 124.223 25.22 125.563 26.42C126.903 27.6 127.573 29.39 127.573 31.79V41H123.193V38.99C122.313 40.49 120.673 41.24 118.273 41.24C117.033 41.24 115.953 41.03 115.033 40.61C114.133 40.19 113.443 39.61 112.963 38.87C112.483 38.13 112.243 37.29 112.243 36.35C112.243 34.85 112.803 33.67 113.923 32.81C115.063 31.95 116.813 31.52 119.173 31.52H122.893C122.893 30.5 122.583 29.72 121.963 29.18C121.343 28.62 120.413 28.34 119.173 28.34C118.313 28.34 117.463 28.48 116.623 28.76C115.803 29.02 115.103 29.38 114.523 29.84L112.843 26.57C113.723 25.95 114.773 25.47 115.993 25.13C117.233 24.79 118.503 24.62 119.803 24.62ZM119.443 38.09C120.243 38.09 120.953 37.91 121.573 37.55C122.193 37.17 122.633 36.62 122.893 35.9V34.25H119.683C117.763 34.25 116.803 34.88 116.803 36.14C116.803 36.74 117.033 37.22 117.493 37.58C117.973 37.92 118.623 38.09 119.443 38.09ZM141.618 24.62C143.618 24.62 145.228 25.22 146.448 26.42C147.688 27.62 148.308 29.4 148.308 31.76V41H143.628V32.48C143.628 31.2 143.348 30.25 142.788 29.63C142.228 28.99 141.418 28.67 140.358 28.67C139.178 28.67 138.238 29.04 137.538 29.78C136.838 30.5 136.488 31.58 136.488 33.02V41H131.808V24.86H136.278V26.75C136.898 26.07 137.668 25.55 138.588 25.19C139.508 24.81 140.518 24.62 141.618 24.62ZM160.526 41.24C158.806 41.24 157.256 40.89 155.876 40.19C154.516 39.47 153.446 38.48 152.666 37.22C151.906 35.96 151.526 34.53 151.526 32.93C151.526 31.33 151.906 29.9 152.666 28.64C153.446 27.38 154.516 26.4 155.876 25.7C157.256 24.98 158.806 24.62 160.526 24.62C162.226 24.62 163.706 24.98 164.966 25.7C166.246 26.4 167.176 27.41 167.756 28.73L164.126 30.68C163.286 29.2 162.076 28.46 160.496 28.46C159.276 28.46 158.266 28.86 157.466 29.66C156.666 30.46 156.266 31.55 156.266 32.93C156.266 34.31 156.666 35.4 157.466 36.2C158.266 37 159.276 37.4 160.496 37.4C162.096 37.4 163.306 36.66 164.126 35.18L167.756 37.16C167.176 38.44 166.246 39.44 164.966 40.16C163.706 40.88 162.226 41.24 160.526 41.24ZM170.451 24.86H175.131V41H170.451V24.86ZM172.791 22.61C171.931 22.61 171.231 22.36 170.691 21.86C170.151 21.36 169.881 20.74 169.881 20C169.881 19.26 170.151 18.64 170.691 18.14C171.231 17.64 171.931 17.39 172.791 17.39C173.651 17.39 174.351 17.63 174.891 18.11C175.431 18.59 175.701 19.19 175.701 19.91C175.701 20.69 175.431 21.34 174.891 21.86C174.351 22.36 173.651 22.61 172.791 22.61ZM189.884 40.22C189.424 40.56 188.854 40.82 188.174 41C187.514 41.16 186.814 41.24 186.074 41.24C184.154 41.24 182.664 40.75 181.604 39.77C180.564 38.79 180.044 37.35 180.044 35.45V28.82H177.554V25.22H180.044V21.29H184.724V25.22H188.744V28.82H184.724V35.39C184.724 36.07 184.894 36.6 185.234 36.98C185.594 37.34 186.094 37.52 186.734 37.52C187.474 37.52 188.104 37.32 188.624 36.92L189.884 40.22ZM208.239 24.86L200.949 41.99C200.209 43.85 199.289 45.16 198.189 45.92C197.109 46.68 195.799 47.06 194.259 47.06C193.419 47.06 192.589 46.93 191.769 46.67C190.949 46.41 190.279 46.05 189.759 45.59L191.469 42.26C191.829 42.58 192.239 42.83 192.699 43.01C193.179 43.19 193.649 43.28 194.109 43.28C194.749 43.28 195.269 43.12 195.669 42.8C196.069 42.5 196.429 41.99 196.749 41.27L196.809 41.12L189.819 24.86H194.649L199.179 35.81L203.739 24.86H208.239Z" fill="#020015"/>
</svg>
