<svg width="50" height="45" viewBox="0 0 50 45" fill="none" xmlns="http://www.w3.org/2000/svg">
<path d="M36.8421 4.5C36.1442 4.5 35.4748 4.26295 34.9813 3.84099C34.4878 3.41903 34.2105 2.84674 34.2105 2.25C34.2105 1.65326 34.4878 1.08097 34.9813 0.65901C35.4748 0.237053 36.1442 0 36.8421 0H47.3684C48.0664 0 48.7357 0.237053 49.2292 0.65901C49.7227 1.08097 50 1.65326 50 2.25V11.25C50 11.8467 49.7227 12.419 49.2292 12.841C48.7357 13.2629 48.0664 13.5 47.3684 13.5C46.6705 13.5 46.0011 13.2629 45.5076 12.841C45.0141 12.419 44.7368 11.8467 44.7368 11.25V7.6815L29.4921 20.7157C28.9986 21.1376 28.3294 21.3745 27.6316 21.3745C26.9338 21.3745 26.2645 21.1376 25.7711 20.7157L18.4211 14.4315L4.4921 26.3407C3.99578 26.7506 3.33104 26.9774 2.64105 26.9723C1.95106 26.9671 1.29103 26.7305 0.803109 26.3133C0.315193 25.8962 0.0384327 25.3318 0.0324368 24.7419C0.026441 24.152 0.291689 23.5836 0.771053 23.1593L16.5605 9.65925C17.054 9.23744 17.7233 9.00048 18.4211 9.00048C19.1189 9.00048 19.7881 9.23744 20.2816 9.65925L27.6316 15.9435L41.0158 4.5H36.8421ZM5.26316 36V42.75C5.26316 43.3467 4.9859 43.919 4.49239 44.341C3.99887 44.7629 3.32952 45 2.63158 45C1.93364 45 1.26429 44.7629 0.770772 44.341C0.277255 43.919 0 43.3467 0 42.75V36C0 35.4033 0.277255 34.831 0.770772 34.409C1.26429 33.9871 1.93364 33.75 2.63158 33.75C3.32952 33.75 3.99887 33.9871 4.49239 34.409C4.9859 34.831 5.26316 35.4033 5.26316 36ZM18.4211 27C18.4211 26.4033 18.1438 25.831 17.6503 25.409C17.1568 24.9871 16.4874 24.75 15.7895 24.75C15.0915 24.75 14.4222 24.9871 13.9287 25.409C13.4352 25.831 13.1579 26.4033 13.1579 27V42.75C13.1579 43.3467 13.4352 43.919 13.9287 44.341C14.4222 44.7629 15.0915 45 15.7895 45C16.4874 45 17.1568 44.7629 17.6503 44.341C18.1438 43.919 18.4211 43.3467 18.4211 42.75V27ZM28.9474 29.25C29.6453 29.25 30.3147 29.4871 30.8082 29.909C31.3017 30.331 31.5789 30.9033 31.5789 31.5V42.75C31.5789 43.3467 31.3017 43.919 30.8082 44.341C30.3147 44.7629 29.6453 45 28.9474 45C28.2494 45 27.5801 44.7629 27.0866 44.341C26.593 43.919 26.3158 43.3467 26.3158 42.75V31.5C26.3158 30.9033 26.593 30.331 27.0866 29.909C27.5801 29.4871 28.2494 29.25 28.9474 29.25ZM44.7368 20.25C44.7368 19.6533 44.4596 19.081 43.9661 18.659C43.4726 18.2371 42.8032 18 42.1053 18C41.4073 18 40.738 18.2371 40.2445 18.659C39.7509 19.081 39.4737 19.6533 39.4737 20.25V42.75C39.4737 43.3467 39.7509 43.919 40.2445 44.341C40.738 44.7629 41.4073 45 42.1053 45C42.8032 45 43.4726 44.7629 43.9661 44.341C44.4596 43.919 44.7368 43.3467 44.7368 42.75V20.25Z" fill="#3E70F0"/>
</svg>
