<svg width="50" height="45" viewBox="0 0 50 45" fill="none" xmlns="http://www.w3.org/2000/svg">
<path d="M0.412481 43.7372C0.877459 44.5247 1.65992 45 2.49988 45H39.9981C40.9981 45 41.903 44.3306 42.2955 43.2956L49.7952 23.6081C49.9595 23.1804 50.0266 22.7135 49.9905 22.2493C49.9543 21.7852 49.816 21.3384 49.5881 20.9494C49.3601 20.5604 49.0497 20.2414 48.6848 20.0211C48.3199 19.8008 47.9119 19.6861 47.4978 19.6875H44.9979V11.25C44.9979 8.14781 42.7555 5.625 39.9981 5.625H23.3614L16.9717 0H4.99977C2.2424 0 0 2.52281 0 5.625V42.1875H0.0174991C0.0119271 42.7364 0.149229 43.2751 0.412481 43.7372ZM39.9981 11.25V19.6875H9.99953C8.99958 19.6875 8.09462 20.3569 7.70214 21.3919L4.99977 28.4878V11.25H39.9981Z" fill="#77ACF1"/>
</svg>
