<svg width="50" height="45" viewBox="0 0 50 45" fill="none" xmlns="http://www.w3.org/2000/svg">
<path opacity="0.5" d="M50 18H0V38.25C0 40.0402 0.790177 41.7571 2.1967 43.023C3.60322 44.2888 5.51088 45 7.5 45H42.5C44.4891 45 46.3968 44.2888 47.8033 43.023C49.2098 41.7571 50 40.0402 50 38.25V18ZM12.5 13.5C11.837 13.5 11.2011 13.2629 10.7322 12.841C10.2634 12.419 10 11.8467 10 11.25V2.25C10 1.65326 10.2634 1.08097 10.7322 0.65901C11.2011 0.237053 11.837 0 12.5 0C13.163 0 13.7989 0.237053 14.2678 0.65901C14.7366 1.08097 15 1.65326 15 2.25V11.25C15 11.8467 14.7366 12.419 14.2678 12.841C13.7989 13.2629 13.163 13.5 12.5 13.5ZM37.5 13.5C36.837 13.5 36.2011 13.2629 35.7322 12.841C35.2634 12.419 35 11.8467 35 11.25V2.25C35 1.65326 35.2634 1.08097 35.7322 0.65901C36.2011 0.237053 36.837 0 37.5 0C38.163 0 38.7989 0.237053 39.2678 0.65901C39.7366 1.08097 40 1.65326 40 2.25V11.25C40 11.8467 39.7366 12.419 39.2678 12.841C38.7989 13.2629 38.163 13.5 37.5 13.5Z" fill="#77ACF1"/>
<path d="M42.5 0H40V6.75C40 7.34674 39.7366 7.91903 39.2678 8.34099C38.7989 8.76295 38.163 9 37.5 9C36.837 9 36.2011 8.76295 35.7322 8.34099C35.2634 7.91903 35 7.34674 35 6.75V0H15V6.75C15 7.34674 14.7366 7.91903 14.2678 8.34099C13.7989 8.76295 13.163 9 12.5 9C11.837 9 11.2011 8.76295 10.7322 8.34099C10.2634 7.91903 10 7.34674 10 6.75V0H7.5C5.51088 0 3.60322 0.711159 2.1967 1.97703C0.790177 3.2429 0 4.95979 0 6.75V13.5H50V6.75C50 4.95979 49.2098 3.2429 47.8033 1.97703C46.3968 0.711159 44.4891 0 42.5 0Z" fill="#060372"/>
</svg>
