<svg width="50" height="50" viewBox="0 0 50 50" fill="none" xmlns="http://www.w3.org/2000/svg">
<path d="M39.1296 32.9643C37.9968 31.9026 36.6731 31.036 35.2193 30.4044C37.2695 28.8489 38.5774 26.4754 38.5774 23.8137C38.5774 19.1175 34.3956 15.2649 29.3809 15.3369C24.4433 15.409 20.465 19.1769 20.465 23.8137C20.465 26.4754 21.7775 28.8489 23.8232 30.4044C22.3691 31.0356 21.0454 31.9022 19.9129 32.9643C17.4418 35.2827 16.0388 38.3428 15.9483 41.6064C15.9471 41.6516 15.9555 41.6966 15.9732 41.7388C15.9908 41.7809 16.0173 41.8193 16.0511 41.8517C16.0848 41.884 16.1251 41.9098 16.1697 41.9273C16.2142 41.9449 16.262 41.954 16.3103 41.9539H18.8448C19.0394 41.9539 19.2023 41.8098 19.2069 41.6276C19.2929 39.1693 20.3564 36.8679 22.2256 35.1217C23.1821 34.2212 24.3198 33.5073 25.5729 33.0213C26.8259 32.5353 28.1695 32.2869 29.5258 32.2904C32.282 32.2904 34.8753 33.2949 36.8259 35.1217C38.6906 36.8679 39.7542 39.1693 39.8447 41.6276C39.8492 41.8098 40.0121 41.9539 40.2067 41.9539H42.7412C42.7895 41.954 42.8374 41.9449 42.8819 41.9273C42.9264 41.9098 42.9667 41.884 43.0005 41.8517C43.0342 41.8193 43.0607 41.7809 43.0784 41.7388C43.096 41.6966 43.1045 41.6516 43.1033 41.6064C43.0128 38.3428 41.6097 35.2827 39.1296 32.9643ZM29.5258 29.2388C27.9779 29.2388 26.5206 28.6751 25.4299 27.6494C24.8825 27.1408 24.4501 26.5342 24.1585 25.8657C23.8669 25.1972 23.7221 24.4806 23.7327 23.7586C23.7463 22.3684 24.3392 21.0248 25.3756 20.0288C26.4618 18.9862 27.9146 18.4055 29.4669 18.3885C31.0012 18.3758 32.4902 18.9353 33.5854 19.9398C34.7078 20.9697 35.3234 22.3472 35.3234 23.8137C35.3234 25.2632 34.7214 26.6237 33.6262 27.6494C33.0888 28.155 32.4498 28.5558 31.7459 28.8287C31.0421 29.1015 30.2875 29.2409 29.5258 29.2388ZM18.1886 24.9326C18.1478 24.5639 18.1252 24.1909 18.1252 23.8137C18.1252 23.1398 18.1931 22.4828 18.3198 21.8428C18.3515 21.6902 18.2655 21.5334 18.1161 21.4698C17.5006 21.2113 16.9349 20.8553 16.4461 20.406C15.8701 19.883 15.4169 19.2534 15.1154 18.5572C14.8138 17.861 14.6705 17.1136 14.6946 16.3626C14.7353 15.0021 15.3192 13.7094 16.3375 12.7345C17.4554 11.6622 18.9579 11.0773 20.5556 11.0943C21.9993 11.107 23.3933 11.6283 24.4478 12.5523C24.8053 12.8659 25.1131 13.2135 25.3711 13.5865C25.4616 13.7178 25.6381 13.7729 25.792 13.7221C26.5885 13.4635 27.4303 13.2813 28.2947 13.1965C28.5482 13.1711 28.693 12.9168 28.5799 12.7049C27.109 9.97959 24.1038 8.09775 20.628 8.04689C15.6088 7.97484 11.427 11.8275 11.427 16.5194C11.427 19.1811 12.7349 21.5546 14.7851 23.1101C13.3459 23.7331 12.0198 24.5935 10.8703 25.6701C8.39012 27.9885 6.98711 31.0486 6.8966 34.3164C6.89539 34.3616 6.90386 34.4066 6.92152 34.4487C6.93917 34.4909 6.96565 34.5293 6.99939 34.5616C7.03313 34.594 7.07346 34.6198 7.11798 34.6373C7.16251 34.6549 7.21035 34.6639 7.25866 34.6639H9.79766C9.99227 34.6639 10.1552 34.5198 10.1597 34.3376C10.2457 31.8793 11.3093 29.5779 13.1785 27.8317C14.5091 26.5856 16.1384 25.7209 17.917 25.3013C18.0935 25.259 18.2112 25.1021 18.1886 24.9326Z" fill="white"/>
<circle cx="25" cy="25" r="23.5" stroke="white" stroke-width="3"/>
</svg>
